<svg width="548" height="168" viewBox="0 0 548 168" fill="none" xmlns="https://www.w3.org/2000/svg">
    <path fill-rule="evenodd" clip-rule="evenodd"
        d="M168 84C168 130.392 130.392 168 84 168C37.6081 168 0 130.392 0 84C0 37.6081 37.6081 0 84 0C130.392 0 168 37.6081 168 84ZM34 63.265L49.0741 79.1325L34 95L42.7 103.265L61.7 83.265L65.6259 79.1325L61.7 75L42.7 55L34 63.265ZM71.35 112.132H139.35V100.132H71.35V112.132ZM261.075 117.551C263.171 117.027 265.267 116.166 267.364 114.968V115.249C267.364 117.981 267.008 120.246 266.297 122.043C265.586 123.84 264.594 125.262 263.321 126.311C262.085 127.396 260.607 128.164 258.885 128.613C257.2 129.062 255.347 129.287 253.326 129.287C249.62 129.287 246.25 128.8 243.218 127.827C240.186 126.891 237.378 125.599 234.795 123.952L227.776 136.418C231.146 138.776 234.983 140.648 239.288 142.033C243.63 143.418 248.347 144.111 253.438 144.111C257.556 144.111 261.486 143.531 265.23 142.37C268.973 141.247 272.249 139.506 275.057 137.148C277.902 134.827 280.167 131.87 281.851 128.276C283.536 124.72 284.378 120.489 284.378 115.585V59.8262H267.364V61.0615C265.417 60.1631 263.321 59.4518 261.075 58.9277C258.866 58.4036 256.433 58.1229 253.775 58.0854C249.432 58.1229 245.408 58.9277 241.702 60.5C237.996 62.0723 234.814 64.2248 232.156 66.9575C229.498 69.6528 227.421 72.8161 225.923 76.4473C224.463 80.041 223.733 83.8781 223.733 87.9585C223.733 92.3009 224.501 96.3252 226.036 100.031C227.57 103.737 229.704 106.957 232.437 109.689C235.207 112.385 238.483 114.5 242.264 116.035C246.045 117.569 250.181 118.337 254.673 118.337C256.845 118.337 258.978 118.075 261.075 117.551ZM262.31 100.817C260.214 102.128 257.855 102.783 255.235 102.783C253.213 102.783 251.323 102.446 249.563 101.772C247.841 101.061 246.344 100.069 245.071 98.7959C243.799 97.5231 242.788 95.9696 242.039 94.1353C241.29 92.3009 240.916 90.2607 240.916 88.0146C240.916 85.8809 241.29 83.953 242.039 82.231C242.788 80.4715 243.799 78.9554 245.071 77.6826C246.382 76.4098 247.916 75.4365 249.676 74.7627C251.435 74.0514 253.232 73.6771 255.066 73.6396C257.649 73.6771 260.045 74.3883 262.254 75.7734C264.463 77.1585 266.203 79.0303 267.476 81.3887L267.364 95.5391C266.128 97.7103 264.444 99.4697 262.31 100.817ZM323.067 59.8262H296.956V75.2119H305.716V102.614H296.956V118H331.153V102.614H323.067V59.8262ZM305.547 37.1968C305.061 38.3947 304.817 39.6862 304.817 41.0713C304.817 42.4564 305.061 43.7666 305.547 45.002C306.071 46.1999 306.783 47.248 307.681 48.1465C308.58 49.0449 309.628 49.7562 310.826 50.2803C312.061 50.8044 313.39 51.0664 314.812 51.0664C316.16 51.0664 317.433 50.8044 318.631 50.2803C319.829 49.7562 320.877 49.0449 321.775 48.1465C322.674 47.248 323.385 46.1999 323.909 45.002C324.433 43.7666 324.695 42.4564 324.695 41.0713C324.695 39.6862 324.433 38.3947 323.909 37.1968C323.385 35.9614 322.674 34.8945 321.775 33.9961C320.877 33.0977 319.829 32.3864 318.631 31.8623C317.433 31.3382 316.16 31.0762 314.812 31.0762C313.39 31.0762 312.061 31.3382 310.826 31.8623C309.628 32.3864 308.58 33.0977 307.681 33.9961C306.783 34.8945 306.071 35.9614 305.547 37.1968ZM386.575 76.8965C388.297 78.7308 389.158 81.2764 389.158 84.5332V118H415.718V102.614H407.464V81.7817C407.464 74.2573 405.573 68.5485 401.792 64.6553C398.012 60.7246 392.621 58.7593 385.621 58.7593C382.289 58.7593 379.107 59.3208 376.075 60.4438C373.08 61.5295 370.366 63.0269 367.933 64.936V59.8262H341.429V75.2119H349.852V102.614H341.316V118H377.479V102.614H368.045V80.2095C369.917 77.8511 371.845 76.2414 373.829 75.3804C375.813 74.5194 377.778 74.0889 379.725 74.0889C382.57 74.0889 384.853 75.0247 386.575 76.8965ZM438.572 94.3037L438.404 92.563H481.248C481.323 91.5897 481.342 90.6538 481.304 89.7554C481.304 88.8195 481.248 87.8836 481.136 86.9478C481.023 82.7925 480.312 78.918 479.002 75.3242C477.692 71.693 475.82 68.5485 473.387 65.8906C470.953 63.1953 467.959 61.099 464.402 59.6016C460.883 58.0667 456.84 57.2993 452.273 57.2993C447.706 57.2993 443.551 58.1042 439.808 59.7139C436.064 61.3236 432.845 63.5322 430.149 66.3398C427.454 69.11 425.358 72.3669 423.86 76.1104C422.4 79.8538 421.67 83.8594 421.67 88.127C421.67 92.3945 422.363 96.4375 423.748 100.256C425.171 104.074 427.211 107.406 429.869 110.251C432.564 113.096 435.877 115.361 439.808 117.045C443.738 118.693 448.23 119.516 453.284 119.516C455.979 119.516 458.338 119.366 460.359 119.067C462.381 118.805 464.29 118.374 466.087 117.775C467.884 117.176 469.662 116.428 471.421 115.529C473.218 114.593 475.184 113.47 477.317 112.16L471.141 100.649C469.756 101.173 468.389 101.678 467.042 102.165C465.694 102.614 464.309 103.026 462.886 103.4C461.464 103.737 459.985 104.018 458.45 104.243C456.953 104.43 455.362 104.523 453.677 104.523C451.993 104.523 450.327 104.318 448.68 103.906C447.033 103.457 445.535 102.801 444.188 101.94C442.84 101.079 441.661 100.013 440.65 98.7397C439.677 97.467 438.984 95.9883 438.572 94.3037ZM446.434 72.1235C447.931 71.5994 449.728 71.3374 451.824 71.3374C453.808 71.3374 455.455 71.5994 456.766 72.1235C458.113 72.6102 459.218 73.284 460.079 74.145C460.94 75.006 461.613 75.998 462.1 77.1211C462.587 78.2441 462.961 79.4421 463.223 80.7148H438.909C439.246 79.4795 439.714 78.3003 440.313 77.1772C440.912 76.0542 441.717 75.0622 442.728 74.2012C443.738 73.3027 444.974 72.6102 446.434 72.1235ZM505.169 94.3037L505 92.563H547.845C547.92 91.5897 547.938 90.6538 547.901 89.7554C547.901 88.8195 547.845 87.8836 547.732 86.9478C547.62 82.7925 546.909 78.918 545.599 75.3242C544.288 71.693 542.417 68.5485 539.983 65.8906C537.55 63.1953 534.555 61.099 530.999 59.6016C527.48 58.0667 523.437 57.2993 518.87 57.2993C514.303 57.2993 510.148 58.1042 506.404 59.7139C502.661 61.3236 499.441 63.5322 496.746 66.3398C494.051 69.11 491.954 72.3669 490.457 76.1104C488.997 79.8538 488.267 83.8594 488.267 88.127C488.267 92.3945 488.96 96.4375 490.345 100.256C491.767 104.074 493.807 107.406 496.465 110.251C499.161 113.096 502.474 115.361 506.404 117.045C510.335 118.693 514.827 119.516 519.881 119.516C522.576 119.516 524.935 119.366 526.956 119.067C528.978 118.805 530.887 118.374 532.684 117.775C534.48 117.176 536.259 116.428 538.018 115.529C539.815 114.593 541.78 113.47 543.914 112.16L537.737 100.649C536.352 101.173 534.986 101.678 533.638 102.165C532.291 102.614 530.905 103.026 529.483 103.4C528.06 103.737 526.582 104.018 525.047 104.243C523.549 104.43 521.958 104.523 520.274 104.523C518.589 104.523 516.924 104.318 515.276 103.906C513.629 103.457 512.132 102.801 510.784 101.94C509.437 101.079 508.257 100.013 507.247 98.7397C506.273 97.467 505.581 95.9883 505.169 94.3037ZM513.03 72.1235C514.528 71.5994 516.325 71.3374 518.421 71.3374C520.405 71.3374 522.052 71.5994 523.362 72.1235C524.71 72.6102 525.814 73.284 526.675 74.145C527.536 75.006 528.21 75.998 528.697 77.1211C529.183 78.2441 529.558 79.4421 529.82 80.7148H505.506C505.843 79.4795 506.311 78.3003 506.91 77.1772C507.509 76.0542 508.313 75.0622 509.324 74.2012C510.335 73.3027 511.57 72.6102 513.03 72.1235Z"
        fill="#e0e0e0" />
</svg>