<svg width="340" height="101" viewBox="0 0 340 101" fill="none" xmlns="http://www.w3.org/2000/svg">
    <path
        d="M208.144 78.048C208.144 86.304 206.224 92.16 202.384 95.616C198.64 99.072 192.4 100.8 183.664 100.8H130V0H181.936C190.576 0 197.104 1.776 201.52 5.328C205.936 8.784 208.144 14.496 208.144 22.464V78.048Z"
        fill="#42A5F5" />
    <path d="M159.838 73V29.32L148.558 33.48V27L159.038 23H180.638V73H189.358V79H149.358V73H159.838Z" fill="white" />
    <path fill-rule="evenodd" clip-rule="evenodd"
        d="M202.384 95.616C206.224 92.16 208.144 86.304 208.144 78.048V51.5056L180.638 24V72.8616H189.358V78.8616H150L171.938 100.8H183.664C192.4 100.8 198.64 99.072 202.384 95.616Z"
        fill="#0077C2" />
    <path fill-rule="evenodd" clip-rule="evenodd"
        d="M236.481 79C231.787 79 228.347 78.0133 226.161 76.04C223.974 74.0133 222.881 70.7333 222.881 66.2V51.8C222.881 47.2133 223.867 43.9333 225.841 41.96C227.814 39.9867 231.094 39 235.681 39H239.441C243.227 39 246.081 40.0667 248.001 42.2C249.974 44.28 250.961 47.3467 250.961 51.4V61.8H229.681V67.8C229.681 69.4533 230.187 70.7333 231.201 71.64C232.214 72.5467 233.707 73 235.681 73H248.401V79H236.481ZM244.321 49.8C244.321 48.4133 243.867 47.2667 242.961 46.36C242.054 45.4533 240.907 45 239.521 45H234.881C232.961 45 231.601 45.4533 230.801 46.36C230.054 47.2133 229.681 48.4933 229.681 50.2V55.8H244.321V49.8Z"
        fill="#42A5F5" />
    <path fill-rule="evenodd" clip-rule="evenodd"
        d="M291.924 79C291.23 79 290.457 78.7867 289.604 78.36C288.804 77.9333 288.11 77.3467 287.524 76.6C286.297 78.2 284.67 79 282.644 79H275.524C271.47 79 268.51 78.2 266.644 76.6C264.83 74.9467 263.924 72.1467 263.924 68.2V66.6C263.924 58.3333 267.817 54.2 275.604 54.2H285.524V50.2C285.524 48.5467 285.017 47.2667 284.004 46.36C282.99 45.4533 281.497 45 279.524 45H267.124V39H278.724C283.364 39 286.777 40.0133 288.964 42.04C291.204 44.0667 292.324 47.32 292.324 51.8V71C292.324 71.8 292.617 72.4133 293.204 72.84C293.844 73.2133 294.884 73.4 296.324 73.4V79H291.924ZM281.844 73C283.444 73 284.457 72.6267 284.884 71.88C285.31 71.1333 285.524 70.1733 285.524 69V60.2H275.524C274.137 60.2 272.99 60.6533 272.084 61.56C271.177 62.4667 270.724 63.6133 270.724 65V69C270.724 70.3867 271.044 71.4 271.684 72.04C272.324 72.68 273.337 73 274.724 73H281.844Z"
        fill="#42A5F5" />
    <path
        d="M325.927 79C324.114 79 322.514 78.36 321.127 77.08C319.794 75.8 319.127 73.7733 319.127 71V29H307.367V23H325.927V70.6C325.927 71.4533 326.14 72.0667 326.567 72.44C326.994 72.8133 327.714 73 328.727 73H339.367V79H325.927Z"
        fill="#42A5F5" />
    <path fill-rule="evenodd" clip-rule="evenodd"
        d="M29.84 66.2C29.84 70.68 28.72 73.9333 26.48 75.96C24.2933 77.9867 20.88 79 16.24 79H13.6C8.96 79 5.52 77.9867 3.28 75.96C1.09333 73.9333 0 70.68 0 66.2V51.8C0 47.32 1.09333 44.0667 3.28 42.04C5.52 40.0133 8.96 39 13.6 39H16.24C20.88 39 24.2933 40.0133 26.48 42.04C28.72 44.0667 29.84 47.32 29.84 51.8V66.2ZM23.04 50.2C23.04 48.5467 22.5333 47.2667 21.52 46.36C20.5067 45.4533 19.0133 45 17.04 45H12.8C10.8267 45 9.33333 45.4533 8.32 46.36C7.30667 47.2667 6.8 48.5467 6.8 50.2V67.8C6.8 69.4533 7.30667 70.7333 8.32 71.64C9.33333 72.5467 10.8267 73 12.8 73H17.04C19.0133 73 20.5067 72.5467 21.52 71.64C22.5333 70.7333 23.04 69.4533 23.04 67.8V50.2Z"
        fill="#42A5F5" />
    <path
        d="M49.9231 39V40.92C51.5765 39.64 53.7098 39 56.3231 39H60.0031C64.3231 39 67.5231 40.0133 69.6031 42.04C71.7365 44.0667 72.8031 47.32 72.8031 51.8V79H66.0031V50.2C66.0031 48.6 65.5231 47.3467 64.5631 46.44C63.6565 45.48 62.4031 45 60.8031 45H55.5231C53.7631 45 52.4565 45.48 51.6031 46.44C50.7498 47.3467 50.3231 48.3333 50.3231 49.4V79H43.5231V39H49.9231Z"
        fill="#42A5F5" />
    <path fill-rule="evenodd" clip-rule="evenodd"
        d="M100.886 79C96.1929 79 92.7529 78.0133 90.5663 76.04C88.3796 74.0133 87.2862 70.7333 87.2862 66.2V51.8C87.2862 47.2133 88.2729 43.9333 90.2463 41.96C92.2196 39.9867 95.4996 39 100.086 39H103.846C107.633 39 110.486 40.0667 112.406 42.2C114.38 44.28 115.366 47.3467 115.366 51.4V61.8H94.0863V67.8C94.0863 69.4533 94.5929 70.7333 95.6062 71.64C96.6196 72.5467 98.1129 73 100.086 73H112.806V79H100.886ZM108.726 49.8C108.726 48.4133 108.273 47.2667 107.366 46.36C106.46 45.4533 105.313 45 103.926 45H99.2863C97.3662 45 96.0062 45.4533 95.2063 46.36C94.4596 47.2133 94.0863 48.4933 94.0863 50.2V55.8H108.726V49.8Z"
        fill="#42A5F5" />
</svg>